<mxfile host="app.diagrams.net" modified="2024-02-14T22:27:36.556Z" agent="Mozilla/5.0 (Windows NT 10.0; Win64; x64) AppleWebKit/537.36 (KHTML, like Gecko) Chrome/121.0.0.0 Safari/537.36" etag="fHU1g0usKJ4d3vYfs5dR" version="23.1.4" type="github">
  <diagram name="Página-1" id="oXrFvZ9Wo7Fr2uWamncA">
    <mxGraphModel dx="1989" dy="2078" grid="1" gridSize="10" guides="1" tooltips="1" connect="1" arrows="1" fold="1" page="1" pageScale="1" pageWidth="827" pageHeight="1169" math="0" shadow="0">
      <root>
        <mxCell id="0" />
        <mxCell id="1" parent="0" />
        <mxCell id="rD1cP6L2PtXyWzFsZ86Q-1" value="Cliente" style="rounded=1;arcSize=10;whiteSpace=wrap;html=1;align=center;" parent="1" vertex="1">
          <mxGeometry x="10" y="80" width="100" height="40" as="geometry" />
        </mxCell>
        <mxCell id="rD1cP6L2PtXyWzFsZ86Q-2" value="Cuenta" style="rounded=1;arcSize=10;whiteSpace=wrap;html=1;align=center;" parent="1" vertex="1">
          <mxGeometry x="350" y="80" width="100" height="40" as="geometry" />
        </mxCell>
        <mxCell id="rD1cP6L2PtXyWzFsZ86Q-3" value="Operación" style="rounded=1;arcSize=10;whiteSpace=wrap;html=1;align=center;" parent="1" vertex="1">
          <mxGeometry x="350" y="280" width="100" height="40" as="geometry" />
        </mxCell>
        <mxCell id="rD1cP6L2PtXyWzFsZ86Q-4" value="RetiroSinCuenta&lt;br&gt;" style="rounded=1;arcSize=10;whiteSpace=wrap;html=1;align=center;" parent="1" vertex="1">
          <mxGeometry x="10" y="280" width="100" height="40" as="geometry" />
        </mxCell>
        <mxCell id="rD1cP6L2PtXyWzFsZ86Q-5" value="Tiene" style="shape=rhombus;perimeter=rhombusPerimeter;whiteSpace=wrap;html=1;align=center;" parent="1" vertex="1">
          <mxGeometry x="170" y="70" width="120" height="60" as="geometry" />
        </mxCell>
        <mxCell id="rD1cP6L2PtXyWzFsZ86Q-7" value="" style="endArrow=none;html=1;rounded=0;" parent="1" source="rD1cP6L2PtXyWzFsZ86Q-1" target="rD1cP6L2PtXyWzFsZ86Q-5" edge="1">
          <mxGeometry relative="1" as="geometry">
            <mxPoint x="70" y="280" as="sourcePoint" />
            <mxPoint x="230" y="280" as="targetPoint" />
          </mxGeometry>
        </mxCell>
        <mxCell id="rD1cP6L2PtXyWzFsZ86Q-9" value="" style="endArrow=none;html=1;rounded=0;" parent="1" source="rD1cP6L2PtXyWzFsZ86Q-5" target="rD1cP6L2PtXyWzFsZ86Q-2" edge="1">
          <mxGeometry relative="1" as="geometry">
            <mxPoint x="20" y="300" as="sourcePoint" />
            <mxPoint x="180" y="300" as="targetPoint" />
          </mxGeometry>
        </mxCell>
        <mxCell id="rD1cP6L2PtXyWzFsZ86Q-11" value="Realiza" style="shape=rhombus;perimeter=rhombusPerimeter;whiteSpace=wrap;html=1;align=center;" parent="1" vertex="1">
          <mxGeometry x="340" y="170" width="120" height="60" as="geometry" />
        </mxCell>
        <mxCell id="rD1cP6L2PtXyWzFsZ86Q-12" value="" style="endArrow=none;html=1;rounded=0;" parent="1" source="rD1cP6L2PtXyWzFsZ86Q-11" target="rD1cP6L2PtXyWzFsZ86Q-2" edge="1">
          <mxGeometry relative="1" as="geometry">
            <mxPoint x="150" y="160" as="sourcePoint" />
            <mxPoint x="310" y="160" as="targetPoint" />
          </mxGeometry>
        </mxCell>
        <mxCell id="rD1cP6L2PtXyWzFsZ86Q-13" value="" style="endArrow=none;html=1;rounded=0;" parent="1" source="rD1cP6L2PtXyWzFsZ86Q-3" target="rD1cP6L2PtXyWzFsZ86Q-11" edge="1">
          <mxGeometry relative="1" as="geometry">
            <mxPoint x="200" y="160" as="sourcePoint" />
            <mxPoint x="360" y="160" as="targetPoint" />
          </mxGeometry>
        </mxCell>
        <mxCell id="rD1cP6L2PtXyWzFsZ86Q-14" value="Puede" style="shape=rhombus;perimeter=rhombusPerimeter;whiteSpace=wrap;html=1;align=center;" parent="1" vertex="1">
          <mxGeometry y="170" width="120" height="60" as="geometry" />
        </mxCell>
        <mxCell id="rD1cP6L2PtXyWzFsZ86Q-15" value="" style="endArrow=none;html=1;rounded=0;" parent="1" source="rD1cP6L2PtXyWzFsZ86Q-1" target="rD1cP6L2PtXyWzFsZ86Q-14" edge="1">
          <mxGeometry relative="1" as="geometry">
            <mxPoint x="130" y="200" as="sourcePoint" />
            <mxPoint x="290" y="200" as="targetPoint" />
          </mxGeometry>
        </mxCell>
        <mxCell id="rD1cP6L2PtXyWzFsZ86Q-16" value="" style="endArrow=none;html=1;rounded=0;" parent="1" source="rD1cP6L2PtXyWzFsZ86Q-14" target="rD1cP6L2PtXyWzFsZ86Q-4" edge="1">
          <mxGeometry relative="1" as="geometry">
            <mxPoint x="100" y="220" as="sourcePoint" />
            <mxPoint x="260" y="220" as="targetPoint" />
          </mxGeometry>
        </mxCell>
        <mxCell id="rD1cP6L2PtXyWzFsZ86Q-17" value="Nombre" style="ellipse;whiteSpace=wrap;html=1;align=center;" parent="1" vertex="1">
          <mxGeometry x="-90" y="-100" width="100" height="40" as="geometry" />
        </mxCell>
        <mxCell id="rD1cP6L2PtXyWzFsZ86Q-18" value="Nombre" style="ellipse;whiteSpace=wrap;html=1;align=center;" parent="1" vertex="1">
          <mxGeometry x="-170" y="-130" width="100" height="40" as="geometry" />
        </mxCell>
        <mxCell id="rD1cP6L2PtXyWzFsZ86Q-19" value="apellidoP" style="ellipse;whiteSpace=wrap;html=1;align=center;" parent="1" vertex="1">
          <mxGeometry x="-90" y="-160" width="100" height="40" as="geometry" />
        </mxCell>
        <mxCell id="rD1cP6L2PtXyWzFsZ86Q-20" value="apellidoM" style="ellipse;whiteSpace=wrap;html=1;align=center;" parent="1" vertex="1">
          <mxGeometry y="-130" width="100" height="40" as="geometry" />
        </mxCell>
        <mxCell id="rD1cP6L2PtXyWzFsZ86Q-21" value="Domicilio" style="ellipse;whiteSpace=wrap;html=1;align=center;" parent="1" vertex="1">
          <mxGeometry x="-150" y="10" width="100" height="40" as="geometry" />
        </mxCell>
        <mxCell id="rD1cP6L2PtXyWzFsZ86Q-23" value="Calle" style="ellipse;whiteSpace=wrap;html=1;align=center;" parent="1" vertex="1">
          <mxGeometry x="-230" y="-30" width="100" height="40" as="geometry" />
        </mxCell>
        <mxCell id="rD1cP6L2PtXyWzFsZ86Q-24" value="Número" style="ellipse;whiteSpace=wrap;html=1;align=center;" parent="1" vertex="1">
          <mxGeometry x="-270" y="10" width="100" height="40" as="geometry" />
        </mxCell>
        <mxCell id="rD1cP6L2PtXyWzFsZ86Q-25" value="Colonia" style="ellipse;whiteSpace=wrap;html=1;align=center;" parent="1" vertex="1">
          <mxGeometry x="-230" y="50" width="100" height="40" as="geometry" />
        </mxCell>
        <mxCell id="rD1cP6L2PtXyWzFsZ86Q-26" value="fechaNacimiento" style="ellipse;whiteSpace=wrap;html=1;align=center;" parent="1" vertex="1">
          <mxGeometry x="-150" y="110" width="100" height="40" as="geometry" />
        </mxCell>
        <mxCell id="rD1cP6L2PtXyWzFsZ86Q-28" value="edad" style="ellipse;whiteSpace=wrap;html=1;align=center;dashed=1;" parent="1" vertex="1">
          <mxGeometry x="20" width="100" height="40" as="geometry" />
        </mxCell>
        <mxCell id="rD1cP6L2PtXyWzFsZ86Q-30" value="" style="endArrow=none;html=1;rounded=0;" parent="1" source="rD1cP6L2PtXyWzFsZ86Q-28" target="rD1cP6L2PtXyWzFsZ86Q-1" edge="1">
          <mxGeometry relative="1" as="geometry">
            <mxPoint x="40" y="-40" as="sourcePoint" />
            <mxPoint x="200" y="-40" as="targetPoint" />
          </mxGeometry>
        </mxCell>
        <mxCell id="rD1cP6L2PtXyWzFsZ86Q-31" value="" style="endArrow=none;html=1;rounded=0;entryX=0.5;entryY=0;entryDx=0;entryDy=0;" parent="1" source="rD1cP6L2PtXyWzFsZ86Q-21" target="rD1cP6L2PtXyWzFsZ86Q-1" edge="1">
          <mxGeometry relative="1" as="geometry">
            <mxPoint x="50" y="-30" as="sourcePoint" />
            <mxPoint x="210" y="-30" as="targetPoint" />
          </mxGeometry>
        </mxCell>
        <mxCell id="rD1cP6L2PtXyWzFsZ86Q-32" value="" style="endArrow=none;html=1;rounded=0;" parent="1" source="rD1cP6L2PtXyWzFsZ86Q-17" target="rD1cP6L2PtXyWzFsZ86Q-1" edge="1">
          <mxGeometry relative="1" as="geometry">
            <mxPoint x="60" y="-20" as="sourcePoint" />
            <mxPoint x="220" y="-20" as="targetPoint" />
          </mxGeometry>
        </mxCell>
        <mxCell id="rD1cP6L2PtXyWzFsZ86Q-33" value="" style="endArrow=none;html=1;rounded=0;" parent="1" source="rD1cP6L2PtXyWzFsZ86Q-21" target="rD1cP6L2PtXyWzFsZ86Q-23" edge="1">
          <mxGeometry relative="1" as="geometry">
            <mxPoint x="70" y="-10" as="sourcePoint" />
            <mxPoint x="230" y="-10" as="targetPoint" />
          </mxGeometry>
        </mxCell>
        <mxCell id="rD1cP6L2PtXyWzFsZ86Q-34" value="" style="endArrow=none;html=1;rounded=0;" parent="1" source="rD1cP6L2PtXyWzFsZ86Q-21" target="rD1cP6L2PtXyWzFsZ86Q-24" edge="1">
          <mxGeometry relative="1" as="geometry">
            <mxPoint x="80" as="sourcePoint" />
            <mxPoint x="240" as="targetPoint" />
          </mxGeometry>
        </mxCell>
        <mxCell id="rD1cP6L2PtXyWzFsZ86Q-35" value="" style="endArrow=none;html=1;rounded=0;" parent="1" source="rD1cP6L2PtXyWzFsZ86Q-21" target="rD1cP6L2PtXyWzFsZ86Q-25" edge="1">
          <mxGeometry relative="1" as="geometry">
            <mxPoint x="90" y="10" as="sourcePoint" />
            <mxPoint x="250" y="10" as="targetPoint" />
          </mxGeometry>
        </mxCell>
        <mxCell id="rD1cP6L2PtXyWzFsZ86Q-36" value="" style="endArrow=none;html=1;rounded=0;" parent="1" source="rD1cP6L2PtXyWzFsZ86Q-17" target="rD1cP6L2PtXyWzFsZ86Q-18" edge="1">
          <mxGeometry relative="1" as="geometry">
            <mxPoint x="100" y="20" as="sourcePoint" />
            <mxPoint x="260" y="20" as="targetPoint" />
          </mxGeometry>
        </mxCell>
        <mxCell id="rD1cP6L2PtXyWzFsZ86Q-37" value="" style="endArrow=none;html=1;rounded=0;" parent="1" source="rD1cP6L2PtXyWzFsZ86Q-17" target="rD1cP6L2PtXyWzFsZ86Q-19" edge="1">
          <mxGeometry relative="1" as="geometry">
            <mxPoint x="110" y="30" as="sourcePoint" />
            <mxPoint x="270" y="30" as="targetPoint" />
          </mxGeometry>
        </mxCell>
        <mxCell id="rD1cP6L2PtXyWzFsZ86Q-38" value="" style="endArrow=none;html=1;rounded=0;" parent="1" source="rD1cP6L2PtXyWzFsZ86Q-17" target="rD1cP6L2PtXyWzFsZ86Q-20" edge="1">
          <mxGeometry relative="1" as="geometry">
            <mxPoint x="120" y="40" as="sourcePoint" />
            <mxPoint x="280" y="40" as="targetPoint" />
          </mxGeometry>
        </mxCell>
        <mxCell id="rD1cP6L2PtXyWzFsZ86Q-39" value="" style="endArrow=none;html=1;rounded=0;" parent="1" source="rD1cP6L2PtXyWzFsZ86Q-1" target="rD1cP6L2PtXyWzFsZ86Q-26" edge="1">
          <mxGeometry relative="1" as="geometry">
            <mxPoint x="130" y="50" as="sourcePoint" />
            <mxPoint x="290" y="50" as="targetPoint" />
          </mxGeometry>
        </mxCell>
        <mxCell id="rD1cP6L2PtXyWzFsZ86Q-40" value="fechaApertura" style="ellipse;whiteSpace=wrap;html=1;align=center;" parent="1" vertex="1">
          <mxGeometry x="350" y="-10" width="100" height="40" as="geometry" />
        </mxCell>
        <mxCell id="rD1cP6L2PtXyWzFsZ86Q-41" value="saldo" style="ellipse;whiteSpace=wrap;html=1;align=center;" parent="1" vertex="1">
          <mxGeometry x="480" y="30" width="100" height="40" as="geometry" />
        </mxCell>
        <mxCell id="rD1cP6L2PtXyWzFsZ86Q-42" value="" style="endArrow=none;html=1;rounded=0;" parent="1" source="rD1cP6L2PtXyWzFsZ86Q-40" target="rD1cP6L2PtXyWzFsZ86Q-2" edge="1">
          <mxGeometry relative="1" as="geometry">
            <mxPoint x="370" y="-70" as="sourcePoint" />
            <mxPoint x="530" y="-70" as="targetPoint" />
          </mxGeometry>
        </mxCell>
        <mxCell id="rD1cP6L2PtXyWzFsZ86Q-43" value="" style="endArrow=none;html=1;rounded=0;exitX=0.5;exitY=0;exitDx=0;exitDy=0;" parent="1" source="rD1cP6L2PtXyWzFsZ86Q-2" target="rD1cP6L2PtXyWzFsZ86Q-41" edge="1">
          <mxGeometry relative="1" as="geometry">
            <mxPoint x="430" y="-110" as="sourcePoint" />
            <mxPoint x="590" y="-110" as="targetPoint" />
          </mxGeometry>
        </mxCell>
        <mxCell id="rD1cP6L2PtXyWzFsZ86Q-44" value="tituloOperacion" style="ellipse;whiteSpace=wrap;html=1;align=center;" parent="1" vertex="1">
          <mxGeometry x="470" y="280" width="100" height="40" as="geometry" />
        </mxCell>
        <mxCell id="rD1cP6L2PtXyWzFsZ86Q-45" value="monto" style="ellipse;whiteSpace=wrap;html=1;align=center;" parent="1" vertex="1">
          <mxGeometry x="400" y="350" width="100" height="40" as="geometry" />
        </mxCell>
        <mxCell id="rD1cP6L2PtXyWzFsZ86Q-46" value="fechaOperacion" style="ellipse;whiteSpace=wrap;html=1;align=center;" parent="1" vertex="1">
          <mxGeometry x="280" y="340" width="100" height="40" as="geometry" />
        </mxCell>
        <mxCell id="rD1cP6L2PtXyWzFsZ86Q-47" value="" style="endArrow=none;html=1;rounded=0;" parent="1" source="rD1cP6L2PtXyWzFsZ86Q-3" target="rD1cP6L2PtXyWzFsZ86Q-46" edge="1">
          <mxGeometry relative="1" as="geometry">
            <mxPoint x="450" y="220" as="sourcePoint" />
            <mxPoint x="610" y="220" as="targetPoint" />
          </mxGeometry>
        </mxCell>
        <mxCell id="rD1cP6L2PtXyWzFsZ86Q-49" value="" style="endArrow=none;html=1;rounded=0;" parent="1" source="rD1cP6L2PtXyWzFsZ86Q-3" target="rD1cP6L2PtXyWzFsZ86Q-44" edge="1">
          <mxGeometry relative="1" as="geometry">
            <mxPoint x="350" y="270" as="sourcePoint" />
            <mxPoint x="510" y="270" as="targetPoint" />
          </mxGeometry>
        </mxCell>
        <mxCell id="rD1cP6L2PtXyWzFsZ86Q-50" value="" style="endArrow=none;html=1;rounded=0;" parent="1" source="rD1cP6L2PtXyWzFsZ86Q-3" target="rD1cP6L2PtXyWzFsZ86Q-45" edge="1">
          <mxGeometry relative="1" as="geometry">
            <mxPoint x="360" y="280" as="sourcePoint" />
            <mxPoint x="520" y="280" as="targetPoint" />
          </mxGeometry>
        </mxCell>
        <mxCell id="rD1cP6L2PtXyWzFsZ86Q-51" value="1:N" style="text;html=1;strokeColor=none;fillColor=none;align=center;verticalAlign=middle;whiteSpace=wrap;rounded=0;" parent="1" vertex="1">
          <mxGeometry x="200" y="35" width="60" height="30" as="geometry" />
        </mxCell>
        <mxCell id="rD1cP6L2PtXyWzFsZ86Q-52" value="1:N" style="text;html=1;strokeColor=none;fillColor=none;align=center;verticalAlign=middle;whiteSpace=wrap;rounded=0;" parent="1" vertex="1">
          <mxGeometry x="120" y="185" width="60" height="30" as="geometry" />
        </mxCell>
        <mxCell id="rD1cP6L2PtXyWzFsZ86Q-53" value="1:N" style="text;html=1;strokeColor=none;fillColor=none;align=center;verticalAlign=middle;whiteSpace=wrap;rounded=0;" parent="1" vertex="1">
          <mxGeometry x="450" y="185" width="60" height="30" as="geometry" />
        </mxCell>
        <mxCell id="rD1cP6L2PtXyWzFsZ86Q-54" value="1..1" style="text;html=1;strokeColor=none;fillColor=none;align=center;verticalAlign=middle;whiteSpace=wrap;rounded=0;" parent="1" vertex="1">
          <mxGeometry x="100" y="70" width="60" height="30" as="geometry" />
        </mxCell>
        <mxCell id="rD1cP6L2PtXyWzFsZ86Q-55" value="1..n" style="text;html=1;strokeColor=none;fillColor=none;align=center;verticalAlign=middle;whiteSpace=wrap;rounded=0;" parent="1" vertex="1">
          <mxGeometry x="300" y="40" width="60" height="30" as="geometry" />
        </mxCell>
        <mxCell id="rD1cP6L2PtXyWzFsZ86Q-56" value="1..1" style="text;html=1;strokeColor=none;fillColor=none;align=center;verticalAlign=middle;whiteSpace=wrap;rounded=0;" parent="1" vertex="1">
          <mxGeometry x="60" y="120" width="60" height="30" as="geometry" />
        </mxCell>
        <mxCell id="rD1cP6L2PtXyWzFsZ86Q-57" value="1..1" style="text;html=1;strokeColor=none;fillColor=none;align=center;verticalAlign=middle;whiteSpace=wrap;rounded=0;" parent="1" vertex="1">
          <mxGeometry x="400" y="115" width="60" height="30" as="geometry" />
        </mxCell>
        <mxCell id="rD1cP6L2PtXyWzFsZ86Q-58" value="1..n" style="text;html=1;strokeColor=none;fillColor=none;align=center;verticalAlign=middle;whiteSpace=wrap;rounded=0;" parent="1" vertex="1">
          <mxGeometry x="390" y="250" width="60" height="30" as="geometry" />
        </mxCell>
        <mxCell id="rD1cP6L2PtXyWzFsZ86Q-59" value="1..n" style="text;html=1;strokeColor=none;fillColor=none;align=center;verticalAlign=middle;whiteSpace=wrap;rounded=0;" parent="1" vertex="1">
          <mxGeometry x="60" y="250" width="60" height="30" as="geometry" />
        </mxCell>
        <mxCell id="rD1cP6L2PtXyWzFsZ86Q-60" value="contraseña" style="ellipse;whiteSpace=wrap;html=1;align=center;" parent="1" vertex="1">
          <mxGeometry x="-70" y="350" width="100" height="40" as="geometry" />
        </mxCell>
        <mxCell id="rD1cP6L2PtXyWzFsZ86Q-61" value="fechaOperacion" style="ellipse;whiteSpace=wrap;html=1;align=center;" parent="1" vertex="1">
          <mxGeometry x="20" y="390" width="100" height="40" as="geometry" />
        </mxCell>
        <mxCell id="rD1cP6L2PtXyWzFsZ86Q-62" value="" style="endArrow=none;html=1;rounded=0;" parent="1" source="rD1cP6L2PtXyWzFsZ86Q-60" target="rD1cP6L2PtXyWzFsZ86Q-4" edge="1">
          <mxGeometry relative="1" as="geometry">
            <mxPoint y="300" as="sourcePoint" />
            <mxPoint x="160" y="300" as="targetPoint" />
          </mxGeometry>
        </mxCell>
        <mxCell id="rD1cP6L2PtXyWzFsZ86Q-63" value="" style="endArrow=none;html=1;rounded=0;" parent="1" source="rD1cP6L2PtXyWzFsZ86Q-61" target="rD1cP6L2PtXyWzFsZ86Q-4" edge="1">
          <mxGeometry relative="1" as="geometry">
            <mxPoint y="300" as="sourcePoint" />
            <mxPoint x="160" y="300" as="targetPoint" />
          </mxGeometry>
        </mxCell>
        <mxCell id="oYsAPFtXZ2isEe_VdBEa-1" value="Cliente" style="rounded=1;arcSize=10;whiteSpace=wrap;html=1;align=center;" vertex="1" parent="1">
          <mxGeometry x="-90" y="790" width="100" height="40" as="geometry" />
        </mxCell>
        <mxCell id="oYsAPFtXZ2isEe_VdBEa-2" value="Cuenta" style="rounded=1;arcSize=10;whiteSpace=wrap;html=1;align=center;" vertex="1" parent="1">
          <mxGeometry x="170" y="790" width="100" height="40" as="geometry" />
        </mxCell>
        <mxCell id="oYsAPFtXZ2isEe_VdBEa-3" value="Tiene" style="shape=rhombus;perimeter=rhombusPerimeter;whiteSpace=wrap;html=1;align=center;" vertex="1" parent="1">
          <mxGeometry x="30" y="780" width="120" height="60" as="geometry" />
        </mxCell>
        <mxCell id="oYsAPFtXZ2isEe_VdBEa-4" value="" style="endArrow=none;html=1;rounded=0;" edge="1" parent="1" source="oYsAPFtXZ2isEe_VdBEa-35" target="oYsAPFtXZ2isEe_VdBEa-42">
          <mxGeometry relative="1" as="geometry">
            <mxPoint x="70" y="910" as="sourcePoint" />
            <mxPoint x="130" y="910" as="targetPoint" />
          </mxGeometry>
        </mxCell>
        <mxCell id="oYsAPFtXZ2isEe_VdBEa-5" value="" style="endArrow=none;html=1;rounded=0;" edge="1" parent="1" source="oYsAPFtXZ2isEe_VdBEa-1" target="oYsAPFtXZ2isEe_VdBEa-3">
          <mxGeometry relative="1" as="geometry">
            <mxPoint x="80" y="920" as="sourcePoint" />
            <mxPoint x="140" y="920" as="targetPoint" />
          </mxGeometry>
        </mxCell>
        <mxCell id="oYsAPFtXZ2isEe_VdBEa-6" value="" style="endArrow=none;html=1;rounded=0;" edge="1" parent="1" source="oYsAPFtXZ2isEe_VdBEa-2" target="oYsAPFtXZ2isEe_VdBEa-3">
          <mxGeometry relative="1" as="geometry">
            <mxPoint x="90" y="930" as="sourcePoint" />
            <mxPoint x="150" y="930" as="targetPoint" />
          </mxGeometry>
        </mxCell>
        <mxCell id="oYsAPFtXZ2isEe_VdBEa-7" value="1:N&lt;br&gt;" style="text;html=1;align=center;verticalAlign=middle;resizable=0;points=[];autosize=1;strokeColor=none;fillColor=none;" vertex="1" parent="1">
          <mxGeometry x="70" y="750" width="40" height="30" as="geometry" />
        </mxCell>
        <mxCell id="oYsAPFtXZ2isEe_VdBEa-8" value="1..n" style="text;html=1;align=center;verticalAlign=middle;resizable=0;points=[];autosize=1;strokeColor=none;fillColor=none;" vertex="1" parent="1">
          <mxGeometry x="130" y="780" width="40" height="30" as="geometry" />
        </mxCell>
        <mxCell id="oYsAPFtXZ2isEe_VdBEa-9" value="1..1" style="text;html=1;align=center;verticalAlign=middle;resizable=0;points=[];autosize=1;strokeColor=none;fillColor=none;" vertex="1" parent="1">
          <mxGeometry y="780" width="40" height="30" as="geometry" />
        </mxCell>
        <mxCell id="oYsAPFtXZ2isEe_VdBEa-10" value="fechaApertura" style="ellipse;whiteSpace=wrap;html=1;align=center;" vertex="1" parent="1">
          <mxGeometry x="400" y="810" width="100" height="40" as="geometry" />
        </mxCell>
        <mxCell id="oYsAPFtXZ2isEe_VdBEa-11" value="saldo" style="ellipse;whiteSpace=wrap;html=1;align=center;" vertex="1" parent="1">
          <mxGeometry x="340" y="860" width="100" height="40" as="geometry" />
        </mxCell>
        <mxCell id="oYsAPFtXZ2isEe_VdBEa-12" value="Domicilio" style="ellipse;whiteSpace=wrap;html=1;align=center;" vertex="1" parent="1">
          <mxGeometry x="-200" y="748" width="100" height="40" as="geometry" />
        </mxCell>
        <mxCell id="oYsAPFtXZ2isEe_VdBEa-13" value="Calle" style="ellipse;whiteSpace=wrap;html=1;align=center;" vertex="1" parent="1">
          <mxGeometry x="-280" y="708" width="100" height="40" as="geometry" />
        </mxCell>
        <mxCell id="oYsAPFtXZ2isEe_VdBEa-14" value="Número" style="ellipse;whiteSpace=wrap;html=1;align=center;" vertex="1" parent="1">
          <mxGeometry x="-320" y="748" width="100" height="40" as="geometry" />
        </mxCell>
        <mxCell id="oYsAPFtXZ2isEe_VdBEa-15" value="Colonia" style="ellipse;whiteSpace=wrap;html=1;align=center;" vertex="1" parent="1">
          <mxGeometry x="-280" y="788" width="100" height="40" as="geometry" />
        </mxCell>
        <mxCell id="oYsAPFtXZ2isEe_VdBEa-16" value="fechaNacimiento" style="ellipse;whiteSpace=wrap;html=1;align=center;" vertex="1" parent="1">
          <mxGeometry x="-200" y="828" width="100" height="40" as="geometry" />
        </mxCell>
        <mxCell id="oYsAPFtXZ2isEe_VdBEa-17" value="" style="endArrow=none;html=1;rounded=0;" edge="1" parent="1" source="oYsAPFtXZ2isEe_VdBEa-12" target="oYsAPFtXZ2isEe_VdBEa-13">
          <mxGeometry relative="1" as="geometry">
            <mxPoint x="20" y="728" as="sourcePoint" />
            <mxPoint x="180" y="728" as="targetPoint" />
          </mxGeometry>
        </mxCell>
        <mxCell id="oYsAPFtXZ2isEe_VdBEa-18" value="" style="endArrow=none;html=1;rounded=0;" edge="1" parent="1" source="oYsAPFtXZ2isEe_VdBEa-12" target="oYsAPFtXZ2isEe_VdBEa-14">
          <mxGeometry relative="1" as="geometry">
            <mxPoint x="30" y="738" as="sourcePoint" />
            <mxPoint x="190" y="738" as="targetPoint" />
          </mxGeometry>
        </mxCell>
        <mxCell id="oYsAPFtXZ2isEe_VdBEa-19" value="" style="endArrow=none;html=1;rounded=0;" edge="1" parent="1" source="oYsAPFtXZ2isEe_VdBEa-12" target="oYsAPFtXZ2isEe_VdBEa-15">
          <mxGeometry relative="1" as="geometry">
            <mxPoint x="40" y="748" as="sourcePoint" />
            <mxPoint x="200" y="748" as="targetPoint" />
          </mxGeometry>
        </mxCell>
        <mxCell id="oYsAPFtXZ2isEe_VdBEa-20" value="" style="endArrow=none;html=1;rounded=0;" edge="1" parent="1" source="oYsAPFtXZ2isEe_VdBEa-91" target="oYsAPFtXZ2isEe_VdBEa-1">
          <mxGeometry relative="1" as="geometry">
            <mxPoint x="-16" y="908" as="sourcePoint" />
            <mxPoint x="-80" y="860" as="targetPoint" />
          </mxGeometry>
        </mxCell>
        <mxCell id="oYsAPFtXZ2isEe_VdBEa-21" value="" style="endArrow=none;html=1;rounded=0;" edge="1" parent="1" source="oYsAPFtXZ2isEe_VdBEa-1" target="oYsAPFtXZ2isEe_VdBEa-12">
          <mxGeometry relative="1" as="geometry">
            <mxPoint x="-60" y="700" as="sourcePoint" />
            <mxPoint x="-124" y="652" as="targetPoint" />
          </mxGeometry>
        </mxCell>
        <mxCell id="oYsAPFtXZ2isEe_VdBEa-22" value="" style="endArrow=none;html=1;rounded=0;" edge="1" parent="1" source="oYsAPFtXZ2isEe_VdBEa-1" target="oYsAPFtXZ2isEe_VdBEa-16">
          <mxGeometry relative="1" as="geometry">
            <mxPoint x="-50" y="710" as="sourcePoint" />
            <mxPoint x="-114" y="662" as="targetPoint" />
          </mxGeometry>
        </mxCell>
        <mxCell id="oYsAPFtXZ2isEe_VdBEa-23" value="Nombre" style="ellipse;whiteSpace=wrap;html=1;align=center;" vertex="1" parent="1">
          <mxGeometry x="-130" y="698" width="100" height="40" as="geometry" />
        </mxCell>
        <mxCell id="oYsAPFtXZ2isEe_VdBEa-24" value="Nombre" style="ellipse;whiteSpace=wrap;html=1;align=center;" vertex="1" parent="1">
          <mxGeometry x="-230" y="648" width="100" height="40" as="geometry" />
        </mxCell>
        <mxCell id="oYsAPFtXZ2isEe_VdBEa-25" value="apellidoP" style="ellipse;whiteSpace=wrap;html=1;align=center;" vertex="1" parent="1">
          <mxGeometry x="-160" y="600" width="100" height="40" as="geometry" />
        </mxCell>
        <mxCell id="oYsAPFtXZ2isEe_VdBEa-26" value="apellidoM" style="ellipse;whiteSpace=wrap;html=1;align=center;" vertex="1" parent="1">
          <mxGeometry x="-60" y="600" width="100" height="40" as="geometry" />
        </mxCell>
        <mxCell id="oYsAPFtXZ2isEe_VdBEa-27" value="" style="endArrow=none;html=1;rounded=0;" edge="1" parent="1" source="oYsAPFtXZ2isEe_VdBEa-23" target="oYsAPFtXZ2isEe_VdBEa-24">
          <mxGeometry relative="1" as="geometry">
            <mxPoint x="95" y="828" as="sourcePoint" />
            <mxPoint x="255" y="828" as="targetPoint" />
          </mxGeometry>
        </mxCell>
        <mxCell id="oYsAPFtXZ2isEe_VdBEa-28" value="" style="endArrow=none;html=1;rounded=0;" edge="1" parent="1" source="oYsAPFtXZ2isEe_VdBEa-23" target="oYsAPFtXZ2isEe_VdBEa-25">
          <mxGeometry relative="1" as="geometry">
            <mxPoint x="105" y="838" as="sourcePoint" />
            <mxPoint x="265" y="838" as="targetPoint" />
          </mxGeometry>
        </mxCell>
        <mxCell id="oYsAPFtXZ2isEe_VdBEa-29" value="" style="endArrow=none;html=1;rounded=0;" edge="1" parent="1" source="oYsAPFtXZ2isEe_VdBEa-23" target="oYsAPFtXZ2isEe_VdBEa-26">
          <mxGeometry relative="1" as="geometry">
            <mxPoint x="115" y="848" as="sourcePoint" />
            <mxPoint x="275" y="848" as="targetPoint" />
          </mxGeometry>
        </mxCell>
        <mxCell id="oYsAPFtXZ2isEe_VdBEa-30" value="" style="endArrow=none;html=1;rounded=0;" edge="1" parent="1" source="oYsAPFtXZ2isEe_VdBEa-23" target="oYsAPFtXZ2isEe_VdBEa-1">
          <mxGeometry relative="1" as="geometry">
            <mxPoint x="80" y="920" as="sourcePoint" />
            <mxPoint x="90" y="850" as="targetPoint" />
          </mxGeometry>
        </mxCell>
        <mxCell id="oYsAPFtXZ2isEe_VdBEa-33" value="RetiroSinCuenta&lt;br&gt;" style="rounded=1;arcSize=10;whiteSpace=wrap;html=1;align=center;" vertex="1" parent="1">
          <mxGeometry x="170" y="970" width="100" height="40" as="geometry" />
        </mxCell>
        <mxCell id="oYsAPFtXZ2isEe_VdBEa-35" value="realiza" style="shape=rhombus;perimeter=rhombusPerimeter;whiteSpace=wrap;html=1;align=center;" vertex="1" parent="1">
          <mxGeometry x="10" y="678" width="120" height="60" as="geometry" />
        </mxCell>
        <mxCell id="oYsAPFtXZ2isEe_VdBEa-36" value="realiza" style="shape=rhombus;perimeter=rhombusPerimeter;whiteSpace=wrap;html=1;align=center;" vertex="1" parent="1">
          <mxGeometry x="160" y="868" width="120" height="60" as="geometry" />
        </mxCell>
        <mxCell id="oYsAPFtXZ2isEe_VdBEa-38" value="" style="endArrow=none;html=1;rounded=0;" edge="1" parent="1" source="oYsAPFtXZ2isEe_VdBEa-2" target="oYsAPFtXZ2isEe_VdBEa-35">
          <mxGeometry relative="1" as="geometry">
            <mxPoint x="80" y="920" as="sourcePoint" />
            <mxPoint x="140" y="920" as="targetPoint" />
          </mxGeometry>
        </mxCell>
        <mxCell id="oYsAPFtXZ2isEe_VdBEa-39" value="" style="endArrow=none;html=1;rounded=0;" edge="1" parent="1" source="oYsAPFtXZ2isEe_VdBEa-36" target="oYsAPFtXZ2isEe_VdBEa-2">
          <mxGeometry relative="1" as="geometry">
            <mxPoint x="90" y="930" as="sourcePoint" />
            <mxPoint x="150" y="930" as="targetPoint" />
          </mxGeometry>
        </mxCell>
        <mxCell id="oYsAPFtXZ2isEe_VdBEa-41" value="" style="endArrow=none;html=1;rounded=0;" edge="1" parent="1" source="oYsAPFtXZ2isEe_VdBEa-33" target="oYsAPFtXZ2isEe_VdBEa-36">
          <mxGeometry relative="1" as="geometry">
            <mxPoint x="80" y="920" as="sourcePoint" />
            <mxPoint x="140" y="920" as="targetPoint" />
          </mxGeometry>
        </mxCell>
        <mxCell id="oYsAPFtXZ2isEe_VdBEa-42" value="Transferencia" style="rounded=1;arcSize=10;whiteSpace=wrap;html=1;align=center;" vertex="1" parent="1">
          <mxGeometry x="170" y="608" width="100" height="40" as="geometry" />
        </mxCell>
        <mxCell id="oYsAPFtXZ2isEe_VdBEa-43" value="monto" style="ellipse;whiteSpace=wrap;html=1;align=center;" vertex="1" parent="1">
          <mxGeometry x="170" y="500" width="100" height="40" as="geometry" />
        </mxCell>
        <mxCell id="oYsAPFtXZ2isEe_VdBEa-46" value="fechaTransferencia" style="ellipse;whiteSpace=wrap;html=1;align=center;" vertex="1" parent="1">
          <mxGeometry x="80" y="530" width="120" height="40" as="geometry" />
        </mxCell>
        <mxCell id="oYsAPFtXZ2isEe_VdBEa-53" value="recibe" style="shape=rhombus;perimeter=rhombusPerimeter;whiteSpace=wrap;html=1;align=center;" vertex="1" parent="1">
          <mxGeometry x="310" y="678" width="120" height="60" as="geometry" />
        </mxCell>
        <mxCell id="oYsAPFtXZ2isEe_VdBEa-54" value="" style="endArrow=none;html=1;rounded=0;" edge="1" parent="1" source="oYsAPFtXZ2isEe_VdBEa-53" target="oYsAPFtXZ2isEe_VdBEa-42">
          <mxGeometry relative="1" as="geometry">
            <mxPoint x="230" y="688" as="sourcePoint" />
            <mxPoint x="230" y="658" as="targetPoint" />
          </mxGeometry>
        </mxCell>
        <mxCell id="oYsAPFtXZ2isEe_VdBEa-55" value="" style="endArrow=none;html=1;rounded=0;" edge="1" parent="1" source="oYsAPFtXZ2isEe_VdBEa-2" target="oYsAPFtXZ2isEe_VdBEa-53">
          <mxGeometry relative="1" as="geometry">
            <mxPoint x="240" y="698" as="sourcePoint" />
            <mxPoint x="240" y="668" as="targetPoint" />
          </mxGeometry>
        </mxCell>
        <mxCell id="oYsAPFtXZ2isEe_VdBEa-56" value="" style="endArrow=none;html=1;rounded=0;" edge="1" parent="1" source="oYsAPFtXZ2isEe_VdBEa-43" target="oYsAPFtXZ2isEe_VdBEa-42">
          <mxGeometry relative="1" as="geometry">
            <mxPoint x="250" y="708" as="sourcePoint" />
            <mxPoint x="250" y="678" as="targetPoint" />
          </mxGeometry>
        </mxCell>
        <mxCell id="oYsAPFtXZ2isEe_VdBEa-57" value="" style="endArrow=none;html=1;rounded=0;" edge="1" parent="1" source="oYsAPFtXZ2isEe_VdBEa-42" target="oYsAPFtXZ2isEe_VdBEa-46">
          <mxGeometry relative="1" as="geometry">
            <mxPoint x="260" y="718" as="sourcePoint" />
            <mxPoint x="260" y="688" as="targetPoint" />
          </mxGeometry>
        </mxCell>
        <mxCell id="oYsAPFtXZ2isEe_VdBEa-58" value="1:N" style="text;html=1;align=center;verticalAlign=middle;resizable=0;points=[];autosize=1;strokeColor=none;fillColor=none;" vertex="1" parent="1">
          <mxGeometry x="50" y="648" width="40" height="30" as="geometry" />
        </mxCell>
        <mxCell id="oYsAPFtXZ2isEe_VdBEa-59" value="N:1" style="text;html=1;align=center;verticalAlign=middle;resizable=0;points=[];autosize=1;strokeColor=none;fillColor=none;" vertex="1" parent="1">
          <mxGeometry x="390" y="640" width="40" height="30" as="geometry" />
        </mxCell>
        <mxCell id="oYsAPFtXZ2isEe_VdBEa-60" value="1..n" style="text;html=1;align=center;verticalAlign=middle;resizable=0;points=[];autosize=1;strokeColor=none;fillColor=none;" vertex="1" parent="1">
          <mxGeometry x="130" y="630" width="40" height="30" as="geometry" />
        </mxCell>
        <mxCell id="oYsAPFtXZ2isEe_VdBEa-61" value="1..1" style="text;html=1;align=center;verticalAlign=middle;resizable=0;points=[];autosize=1;strokeColor=none;fillColor=none;" vertex="1" parent="1">
          <mxGeometry x="160" y="758" width="40" height="30" as="geometry" />
        </mxCell>
        <mxCell id="oYsAPFtXZ2isEe_VdBEa-62" value="n..1" style="text;html=1;align=center;verticalAlign=middle;resizable=0;points=[];autosize=1;strokeColor=none;fillColor=none;" vertex="1" parent="1">
          <mxGeometry x="280" y="640" width="40" height="30" as="geometry" />
        </mxCell>
        <mxCell id="oYsAPFtXZ2isEe_VdBEa-64" value="1..1" style="text;html=1;align=center;verticalAlign=middle;resizable=0;points=[];autosize=1;strokeColor=none;fillColor=none;" vertex="1" parent="1">
          <mxGeometry x="240" y="753" width="40" height="30" as="geometry" />
        </mxCell>
        <mxCell id="oYsAPFtXZ2isEe_VdBEa-65" value="" style="endArrow=none;html=1;rounded=0;" edge="1" parent="1" source="oYsAPFtXZ2isEe_VdBEa-11" target="oYsAPFtXZ2isEe_VdBEa-2">
          <mxGeometry relative="1" as="geometry">
            <mxPoint x="230" y="878" as="sourcePoint" />
            <mxPoint x="230" y="840" as="targetPoint" />
          </mxGeometry>
        </mxCell>
        <mxCell id="oYsAPFtXZ2isEe_VdBEa-66" value="" style="endArrow=none;html=1;rounded=0;entryX=0.75;entryY=1;entryDx=0;entryDy=0;" edge="1" parent="1" source="oYsAPFtXZ2isEe_VdBEa-10" target="oYsAPFtXZ2isEe_VdBEa-2">
          <mxGeometry relative="1" as="geometry">
            <mxPoint x="240" y="888" as="sourcePoint" />
            <mxPoint x="240" y="850" as="targetPoint" />
          </mxGeometry>
        </mxCell>
        <mxCell id="oYsAPFtXZ2isEe_VdBEa-67" value="saldo" style="ellipse;whiteSpace=wrap;html=1;align=center;" vertex="1" parent="1">
          <mxGeometry x="280" y="1000" width="100" height="40" as="geometry" />
        </mxCell>
        <mxCell id="oYsAPFtXZ2isEe_VdBEa-68" value="folio" style="ellipse;whiteSpace=wrap;html=1;align=center;" vertex="1" parent="1">
          <mxGeometry x="280" y="940" width="100" height="40" as="geometry" />
        </mxCell>
        <mxCell id="oYsAPFtXZ2isEe_VdBEa-69" value="idCuenta" style="ellipse;whiteSpace=wrap;html=1;align=center;" vertex="1" parent="1">
          <mxGeometry x="170" y="1040" width="100" height="40" as="geometry" />
        </mxCell>
        <mxCell id="oYsAPFtXZ2isEe_VdBEa-70" value="contraseña" style="ellipse;whiteSpace=wrap;html=1;align=center;" vertex="1" parent="1">
          <mxGeometry x="60" y="1000" width="100" height="40" as="geometry" />
        </mxCell>
        <mxCell id="oYsAPFtXZ2isEe_VdBEa-71" value="fechaExpiracion" style="ellipse;whiteSpace=wrap;html=1;align=center;" vertex="1" parent="1">
          <mxGeometry x="50" y="940" width="100" height="40" as="geometry" />
        </mxCell>
        <mxCell id="oYsAPFtXZ2isEe_VdBEa-72" value="" style="endArrow=none;html=1;rounded=0;" edge="1" parent="1" source="oYsAPFtXZ2isEe_VdBEa-33" target="oYsAPFtXZ2isEe_VdBEa-71">
          <mxGeometry relative="1" as="geometry">
            <mxPoint x="230" y="980" as="sourcePoint" />
            <mxPoint x="230" y="938" as="targetPoint" />
          </mxGeometry>
        </mxCell>
        <mxCell id="oYsAPFtXZ2isEe_VdBEa-73" value="" style="endArrow=none;html=1;rounded=0;" edge="1" parent="1" source="oYsAPFtXZ2isEe_VdBEa-33" target="oYsAPFtXZ2isEe_VdBEa-70">
          <mxGeometry relative="1" as="geometry">
            <mxPoint x="240" y="990" as="sourcePoint" />
            <mxPoint x="240" y="948" as="targetPoint" />
          </mxGeometry>
        </mxCell>
        <mxCell id="oYsAPFtXZ2isEe_VdBEa-74" value="" style="endArrow=none;html=1;rounded=0;exitX=0.5;exitY=1;exitDx=0;exitDy=0;" edge="1" parent="1" source="oYsAPFtXZ2isEe_VdBEa-33" target="oYsAPFtXZ2isEe_VdBEa-69">
          <mxGeometry relative="1" as="geometry">
            <mxPoint x="250" y="1000" as="sourcePoint" />
            <mxPoint x="250" y="958" as="targetPoint" />
          </mxGeometry>
        </mxCell>
        <mxCell id="oYsAPFtXZ2isEe_VdBEa-75" value="" style="endArrow=none;html=1;rounded=0;" edge="1" parent="1" source="oYsAPFtXZ2isEe_VdBEa-33" target="oYsAPFtXZ2isEe_VdBEa-67">
          <mxGeometry relative="1" as="geometry">
            <mxPoint x="260" y="1010" as="sourcePoint" />
            <mxPoint x="260" y="968" as="targetPoint" />
          </mxGeometry>
        </mxCell>
        <mxCell id="oYsAPFtXZ2isEe_VdBEa-76" value="" style="endArrow=none;html=1;rounded=0;" edge="1" parent="1" source="oYsAPFtXZ2isEe_VdBEa-33" target="oYsAPFtXZ2isEe_VdBEa-68">
          <mxGeometry relative="1" as="geometry">
            <mxPoint x="270" y="1020" as="sourcePoint" />
            <mxPoint x="270" y="978" as="targetPoint" />
          </mxGeometry>
        </mxCell>
        <mxCell id="oYsAPFtXZ2isEe_VdBEa-77" value="idCuentaRecibe" style="ellipse;whiteSpace=wrap;html=1;align=center;" vertex="1" parent="1">
          <mxGeometry x="260" y="520" width="100" height="40" as="geometry" />
        </mxCell>
        <mxCell id="oYsAPFtXZ2isEe_VdBEa-78" value="idCuentaEnvia" style="ellipse;whiteSpace=wrap;html=1;align=center;" vertex="1" parent="1">
          <mxGeometry x="290" y="570" width="100" height="40" as="geometry" />
        </mxCell>
        <mxCell id="oYsAPFtXZ2isEe_VdBEa-79" value="" style="endArrow=none;html=1;rounded=0;" edge="1" parent="1" source="oYsAPFtXZ2isEe_VdBEa-77" target="oYsAPFtXZ2isEe_VdBEa-42">
          <mxGeometry relative="1" as="geometry">
            <mxPoint x="230" y="550" as="sourcePoint" />
            <mxPoint x="230" y="618" as="targetPoint" />
          </mxGeometry>
        </mxCell>
        <mxCell id="oYsAPFtXZ2isEe_VdBEa-80" value="" style="endArrow=none;html=1;rounded=0;" edge="1" parent="1" source="oYsAPFtXZ2isEe_VdBEa-78" target="oYsAPFtXZ2isEe_VdBEa-42">
          <mxGeometry relative="1" as="geometry">
            <mxPoint x="240" y="560" as="sourcePoint" />
            <mxPoint x="240" y="628" as="targetPoint" />
          </mxGeometry>
        </mxCell>
        <mxCell id="oYsAPFtXZ2isEe_VdBEa-81" value="realiza" style="shape=rhombus;perimeter=rhombusPerimeter;whiteSpace=wrap;html=1;align=center;" vertex="1" parent="1">
          <mxGeometry x="440" y="720" width="120" height="60" as="geometry" />
        </mxCell>
        <mxCell id="oYsAPFtXZ2isEe_VdBEa-82" value="" style="endArrow=none;html=1;rounded=0;" edge="1" parent="1" source="oYsAPFtXZ2isEe_VdBEa-81" target="oYsAPFtXZ2isEe_VdBEa-2">
          <mxGeometry relative="1" as="geometry">
            <mxPoint x="410" y="840" as="sourcePoint" />
            <mxPoint x="255" y="840" as="targetPoint" />
          </mxGeometry>
        </mxCell>
        <mxCell id="oYsAPFtXZ2isEe_VdBEa-83" value="Retiro" style="rounded=1;arcSize=10;whiteSpace=wrap;html=1;align=center;" vertex="1" parent="1">
          <mxGeometry x="590" y="730" width="100" height="40" as="geometry" />
        </mxCell>
        <mxCell id="oYsAPFtXZ2isEe_VdBEa-84" value="" style="endArrow=none;html=1;rounded=0;" edge="1" parent="1" source="oYsAPFtXZ2isEe_VdBEa-83" target="oYsAPFtXZ2isEe_VdBEa-81">
          <mxGeometry relative="1" as="geometry">
            <mxPoint x="468" y="769" as="sourcePoint" />
            <mxPoint x="280" y="809" as="targetPoint" />
          </mxGeometry>
        </mxCell>
        <mxCell id="oYsAPFtXZ2isEe_VdBEa-85" value="fecha" style="ellipse;whiteSpace=wrap;html=1;align=center;" vertex="1" parent="1">
          <mxGeometry x="590" y="670" width="100" height="40" as="geometry" />
        </mxCell>
        <mxCell id="oYsAPFtXZ2isEe_VdBEa-86" value="idCuenta" style="ellipse;whiteSpace=wrap;html=1;align=center;" vertex="1" parent="1">
          <mxGeometry x="590" y="790" width="100" height="40" as="geometry" />
        </mxCell>
        <mxCell id="oYsAPFtXZ2isEe_VdBEa-87" value="cantidad" style="ellipse;whiteSpace=wrap;html=1;align=center;" vertex="1" parent="1">
          <mxGeometry x="710" y="730" width="100" height="40" as="geometry" />
        </mxCell>
        <mxCell id="oYsAPFtXZ2isEe_VdBEa-88" value="" style="endArrow=none;html=1;rounded=0;" edge="1" parent="1" source="oYsAPFtXZ2isEe_VdBEa-83" target="oYsAPFtXZ2isEe_VdBEa-85">
          <mxGeometry relative="1" as="geometry">
            <mxPoint x="600" y="760" as="sourcePoint" />
            <mxPoint x="540" y="830" as="targetPoint" />
          </mxGeometry>
        </mxCell>
        <mxCell id="oYsAPFtXZ2isEe_VdBEa-89" value="" style="endArrow=none;html=1;rounded=0;" edge="1" parent="1" source="oYsAPFtXZ2isEe_VdBEa-86" target="oYsAPFtXZ2isEe_VdBEa-83">
          <mxGeometry relative="1" as="geometry">
            <mxPoint x="610" y="770" as="sourcePoint" />
            <mxPoint x="580" y="770" as="targetPoint" />
          </mxGeometry>
        </mxCell>
        <mxCell id="oYsAPFtXZ2isEe_VdBEa-90" value="" style="endArrow=none;html=1;rounded=0;" edge="1" parent="1" source="oYsAPFtXZ2isEe_VdBEa-87" target="oYsAPFtXZ2isEe_VdBEa-83">
          <mxGeometry relative="1" as="geometry">
            <mxPoint x="620" y="780" as="sourcePoint" />
            <mxPoint x="590" y="780" as="targetPoint" />
          </mxGeometry>
        </mxCell>
        <mxCell id="oYsAPFtXZ2isEe_VdBEa-91" value="edad" style="ellipse;whiteSpace=wrap;html=1;align=center;dashed=1;" vertex="1" parent="1">
          <mxGeometry x="-140" y="888" width="100" height="40" as="geometry" />
        </mxCell>
        <mxCell id="oYsAPFtXZ2isEe_VdBEa-92" value="idCliente" style="ellipse;whiteSpace=wrap;html=1;align=center;" vertex="1" parent="1">
          <mxGeometry x="-40" y="860" width="100" height="40" as="geometry" />
        </mxCell>
        <mxCell id="oYsAPFtXZ2isEe_VdBEa-93" value="" style="endArrow=none;html=1;rounded=0;" edge="1" parent="1" source="oYsAPFtXZ2isEe_VdBEa-1" target="oYsAPFtXZ2isEe_VdBEa-92">
          <mxGeometry relative="1" as="geometry">
            <mxPoint x="-80" y="837" as="sourcePoint" />
            <mxPoint x="-102" y="845" as="targetPoint" />
          </mxGeometry>
        </mxCell>
        <mxCell id="oYsAPFtXZ2isEe_VdBEa-94" value="idCuenta" style="ellipse;whiteSpace=wrap;html=1;align=center;" vertex="1" parent="1">
          <mxGeometry x="170" y="718" width="100" height="40" as="geometry" />
        </mxCell>
        <mxCell id="oYsAPFtXZ2isEe_VdBEa-97" value="" style="endArrow=none;html=1;rounded=0;" edge="1" parent="1" source="oYsAPFtXZ2isEe_VdBEa-94" target="oYsAPFtXZ2isEe_VdBEa-2">
          <mxGeometry relative="1" as="geometry">
            <mxPoint x="-16" y="840" as="sourcePoint" />
            <mxPoint x="6" y="871" as="targetPoint" />
          </mxGeometry>
        </mxCell>
      </root>
    </mxGraphModel>
  </diagram>
</mxfile>
